<svg width="7" height="6" viewBox="0 0 7 6" fill="none" xmlns="http://www.w3.org/2000/svg">
<path d="M1.93046 2.12974C1.64989 2.12974 1.42244 2.3639 1.42244 2.65275C1.42244 2.9416 1.64989 3.17576 1.93046 3.17576C2.21103 3.17576 2.43848 2.9416 2.43848 2.65275C2.43848 2.3639 2.21103 2.12974 1.93046 2.12974Z" fill="black"/>
<path d="M3.55611 2.12974C3.27554 2.12974 3.04809 2.3639 3.04809 2.65275C3.04809 2.9416 3.27554 3.17576 3.55611 3.17576C3.83668 3.17576 4.06413 2.9416 4.06413 2.65275C4.06413 2.3639 3.83668 2.12974 3.55611 2.12974Z" fill="black"/>
<path d="M4.67374 2.65275C4.67374 2.3639 4.90119 2.12974 5.18176 2.12974C5.46233 2.12974 5.68978 2.3639 5.68978 2.65275C5.68978 2.9416 5.46233 3.17576 5.18176 3.17576C4.90119 3.17576 4.67374 2.9416 4.67374 2.65275Z" fill="black"/>
<path fill-rule="evenodd" clip-rule="evenodd" d="M5.2227 0.0765336C4.12774 -0.0195992 3.02707 -0.0251782 1.93125 0.0598505L1.85272 0.0659441C0.807707 0.14703 0 1.0436 0 2.12251V5.68619C0 5.7966 0.0563555 5.89888 0.148401 5.95554C0.240446 6.01219 0.354638 6.01488 0.449101 5.96261L2.0385 5.08324C2.11243 5.04234 2.19505 5.02093 2.27898 5.02093H5.92711C6.3872 5.02093 6.7815 4.68227 6.86397 4.21627C7.03112 3.27183 7.04433 2.30533 6.90304 1.35642L6.86141 1.07679C6.78561 0.567693 6.38107 0.178235 5.8826 0.134471L5.2227 0.0765336ZM1.97707 0.685685C3.04038 0.603178 4.10842 0.608591 5.1709 0.701873L5.8308 0.759811C6.04878 0.778948 6.22568 0.949256 6.25883 1.17188L6.30046 1.45151C6.43149 2.33154 6.41924 3.22789 6.26423 4.10377C6.23455 4.27146 6.09267 4.39332 5.92711 4.39332H2.27898C2.09433 4.39332 1.91256 4.44042 1.74991 4.53041L0.609619 5.1613V2.12251C0.609619 1.37193 1.17153 0.748189 1.89853 0.691778L1.97707 0.685685Z" fill="black"/>
</svg>
