<svg width="31" height="31" viewBox="0 0 31 31" fill="none" xmlns="http://www.w3.org/2000/svg">
<path d="M6.3704 15.5C6.3704 14.7438 6.98443 14.1307 7.74187 14.1307H14.1286V7.75434C14.1286 6.99813 14.7426 6.38509 15.5 6.38509C16.2575 6.38509 16.8715 6.99813 16.8715 7.75434V14.1307H23.2583C24.0157 14.1307 24.6298 14.7438 24.6298 15.5C24.6298 16.2562 24.0157 16.8692 23.2583 16.8692H16.8715V23.2456C16.8715 24.0018 16.2575 24.6149 15.5 24.6149C14.7426 24.6149 14.1286 24.0018 14.1286 23.2456V16.8692H7.74187C6.98443 16.8692 6.3704 16.2562 6.3704 15.5Z" fill="black"/>
<path fill-rule="evenodd" clip-rule="evenodd" d="M6.93608 0.4725C12.5821 -0.1575 18.4179 -0.1575 24.0639 0.4725C27.4037 0.845163 30.1007 3.47164 30.4936 6.82532C31.1688 12.5888 31.1688 18.4112 30.4936 24.1747C30.1007 27.5284 27.4037 30.1548 24.0639 30.5275C18.4179 31.1575 12.5821 31.1575 6.93608 30.5275C3.59631 30.1548 0.899268 27.5284 0.506389 24.1747C-0.168796 18.4112 -0.168796 12.5888 0.506389 6.82532C0.899268 3.47164 3.59631 0.845163 6.93608 0.4725ZM23.7593 3.19405C18.3158 2.58665 12.6843 2.58665 7.24075 3.19405C5.14801 3.42757 3.47289 5.07659 3.23076 7.14344C2.58034 12.6956 2.58034 18.3044 3.23076 23.8566C3.47289 25.9234 5.14801 27.5724 7.24075 27.8059C12.6843 28.4134 18.3157 28.4134 23.7593 27.8059C25.852 27.5724 27.5271 25.9234 27.7692 23.8566C28.4197 18.3044 28.4197 12.6956 27.7692 7.14344C27.5271 5.07659 25.852 3.42757 23.7593 3.19405Z" fill="black"/>
</svg>
