<svg width="20" height="20" viewBox="0 0 20 20" fill="none" xmlns="http://www.w3.org/2000/svg">
<path d="M4.17516 9.99979C4.17516 9.51654 4.56691 9.12479 5.05016 9.12479H9.12488V5.05003C9.12488 4.56678 9.51663 4.17503 9.99988 4.17503C10.4831 4.17503 10.8749 4.56678 10.8749 5.05003V9.12479H14.9497C15.4329 9.12479 15.8247 9.51654 15.8247 9.99979C15.8247 10.483 15.4329 10.8748 14.9497 10.8748H10.8749V14.9495C10.8749 15.4328 10.4831 15.8245 9.99988 15.8245C9.51663 15.8245 9.12488 15.4328 9.12488 14.9495V10.8748H5.05016C4.56691 10.8748 4.17516 10.483 4.17516 9.99979Z" fill="#585858"/>
<path fill-rule="evenodd" clip-rule="evenodd" d="M4.53607 0.396671C8.13821 -0.0059216 11.8615 -0.0059216 15.4637 0.396671C17.5944 0.634817 19.3151 2.31323 19.5658 4.45635C19.9966 8.13943 19.9966 11.8602 19.5658 15.5432C19.3151 17.6864 17.5944 19.3648 15.4637 19.6029C11.8615 20.0055 8.13821 20.0055 4.53607 19.6029C2.40529 19.3648 0.684574 17.6864 0.433917 15.5432C0.00314758 11.8602 0.00314765 8.13943 0.433917 4.45635C0.684574 2.31323 2.40529 0.634817 4.53607 0.396671ZM15.2693 2.13584C11.7963 1.74769 8.20341 1.74769 4.73045 2.13584C3.39527 2.28507 2.32655 3.33885 2.17207 4.65965C1.7571 8.20765 1.7571 11.7919 2.17207 15.3399C2.32655 16.6607 3.39527 17.7145 4.73044 17.8637C8.20341 18.2519 11.7963 18.2519 15.2693 17.8637C16.6044 17.7145 17.6732 16.6607 17.8276 15.3399C18.2426 11.7919 18.2426 8.20765 17.8276 4.65965C17.6732 3.33885 16.6044 2.28507 15.2693 2.13584Z" fill="#585858"/>
</svg>
