<svg width="36" height="36" viewBox="0 0 36 36" fill="none" xmlns="http://www.w3.org/2000/svg">
<path d="M18.9834 13.05C19.5884 13.05 20.0789 13.5537 20.0789 14.175V17.1751H23.0002C23.6052 17.1751 24.0957 17.6787 24.0957 18.3001C24.0957 18.9214 23.6052 19.4251 23.0002 19.4251H20.0789V22.425C20.0789 23.0463 19.5884 23.55 18.9834 23.55C18.3784 23.55 17.8879 23.0463 17.8879 22.425V19.4251H14.9665C14.3615 19.4251 13.871 18.9214 13.871 18.3001C13.871 17.6787 14.3615 17.1751 14.9665 17.1751H17.8879V14.175C17.8879 13.5537 18.3784 13.05 18.9834 13.05Z" fill="black"/>
<path fill-rule="evenodd" clip-rule="evenodd" d="M7.65125 22.9564C4.36785 14.6801 10.2969 5.625 18.9993 5.625H19.4688C25.977 5.625 31.253 11.043 31.253 17.7265C31.253 25.1677 25.3788 31.2 18.1327 31.2H6.70982C6.24495 31.2 5.8307 30.8987 5.67642 30.4484C5.52213 29.9981 5.6614 29.4968 6.02386 29.1978L8.90357 26.8229C9.02948 26.7191 9.07402 26.5426 9.01309 26.3891L7.65125 22.9564ZM18.9993 7.875C11.8529 7.875 6.98402 15.311 9.68033 22.1074L11.0422 25.5401C11.4687 26.6152 11.1569 27.8503 10.2755 28.5772L9.8235 28.95H18.1327C24.1688 28.95 29.062 23.9251 29.062 17.7265C29.062 12.2857 24.767 7.875 19.4688 7.875H18.9993Z" fill="black"/>
</svg>
