<svg width="36" height="36" viewBox="0 0 36 36" fill="none" xmlns="http://www.w3.org/2000/svg">
<path d="M18.525 13.05C19.1463 13.05 19.65 13.5537 19.65 14.175V17.1751H22.6499C23.2712 17.1751 23.7749 17.6787 23.7749 18.3001C23.7749 18.9214 23.2712 19.4251 22.6499 19.4251H19.65V22.425C19.65 23.0463 19.1463 23.55 18.525 23.55C17.9036 23.55 17.4 23.0463 17.4 22.425V19.4251H14.3999C13.7786 19.4251 13.2749 18.9214 13.2749 18.3001C13.2749 17.6787 13.7786 17.1751 14.3999 17.1751H17.4V14.175C17.4 13.5537 17.9036 13.05 18.525 13.05Z" fill="black"/>
<path fill-rule="evenodd" clip-rule="evenodd" d="M6.88773 22.9564C3.51593 14.6801 9.60459 5.625 18.5413 5.625H19.0235C25.7069 5.625 31.1249 11.043 31.1249 17.7265C31.1249 25.1677 25.0926 31.2 17.6514 31.2H5.92096C5.44358 31.2 5.01817 30.8987 4.85973 30.4484C4.70129 29.9981 4.84431 29.4968 5.21653 29.1978L8.17377 26.8229C8.30307 26.7191 8.34881 26.5426 8.28624 26.3891L6.88773 22.9564ZM18.5413 7.875C11.2025 7.875 6.20253 15.311 8.97144 22.1074L10.3699 25.5401C10.8079 26.6152 10.4878 27.8503 9.58263 28.5772L9.11846 28.95H17.6514C23.85 28.95 28.8749 23.9251 28.8749 17.7265C28.8749 12.2857 24.4643 7.875 19.0235 7.875H18.5413Z" fill="black"/>
</svg>
