<svg width="46" height="46" viewBox="0 0 46 46" fill="none" xmlns="http://www.w3.org/2000/svg">
<circle cx="23" cy="23" r="23" fill="#C4C4C4"/>
<path fill-rule="evenodd" clip-rule="evenodd" d="M17.3332 17.0002C17.3332 13.8705 19.8702 11.3335 22.9998 11.3335C26.1295 11.3335 28.6665 13.8705 28.6665 17.0002C28.6665 20.1298 26.1295 22.6668 22.9998 22.6668C19.8702 22.6668 17.3332 20.1298 17.3332 17.0002ZM22.9998 13.3335C20.9748 13.3335 19.3332 14.9751 19.3332 17.0002C19.3332 19.0252 20.9748 20.6668 22.9998 20.6668C25.0249 20.6668 26.6665 19.0252 26.6665 17.0002C26.6665 14.9751 25.0249 13.3335 22.9998 13.3335Z" fill="#949494"/>
<path fill-rule="evenodd" clip-rule="evenodd" d="M17.6665 26.6668C16.0097 26.6668 14.6665 28.01 14.6665 29.6668V31.2512C14.6665 31.2753 14.684 31.2959 14.7078 31.2998C20.1995 32.1964 25.8002 32.1964 31.2919 31.2998C31.3157 31.2959 31.3332 31.2753 31.3332 31.2512V29.6668C31.3332 28.01 29.99 26.6668 28.3332 26.6668H27.8787C27.8435 26.6668 27.8086 26.6724 27.7752 26.6833L26.6212 27.0601C24.2681 27.8285 21.7316 27.8285 19.3785 27.0601L18.2245 26.6833C18.1911 26.6724 18.1561 26.6668 18.121 26.6668H17.6665ZM12.6665 29.6668C12.6665 26.9054 14.9051 24.6668 17.6665 24.6668H18.121C18.367 24.6668 18.6114 24.7057 18.8453 24.7821L19.9993 25.1589C21.949 25.7955 24.0507 25.7955 26.0004 25.1589L27.1544 24.7821C27.3882 24.7057 27.6327 24.6668 27.8787 24.6668H28.3332C31.0946 24.6668 33.3332 26.9054 33.3332 29.6668V31.2512C33.3332 32.2555 32.6053 33.1118 31.6141 33.2737C25.909 34.2051 20.0906 34.2051 14.3855 33.2737C13.3943 33.1118 12.6665 32.2555 12.6665 31.2512V29.6668Z" fill="#949494"/>
</svg>
