<svg width="29" height="22" viewBox="0 0 29 22" fill="none" xmlns="http://www.w3.org/2000/svg">
<path d="M11.7792 2.96497C12.4326 2.2867 12.4326 1.18699 11.7792 0.508709C11.1258 -0.16957 10.0665 -0.16957 9.41311 0.508709L0.490033 9.77187C0.163344 10.111 0 10.5555 0 11C0 11.2355 0.0451488 11.46 0.126951 11.6648C0.208597 11.8697 0.329624 12.0616 0.490033 12.2281L9.41311 21.4913C10.0665 22.1696 11.1258 22.1696 11.7792 21.4913C12.4326 20.813 12.4326 19.7133 11.7792 19.035L5.71224 12.7368H27.3269C28.2509 12.7368 29 11.9592 29 11C29 10.0408 28.2509 9.26316 27.3269 9.26316H5.71224L11.7792 2.96497Z" fill="black"/>
</svg>
