<svg width="38" height="38" viewBox="0 0 38 38" fill="none" xmlns="http://www.w3.org/2000/svg">
<path d="M17.8126 30.0832C17.8126 29.4273 18.3442 28.8957 19.0001 28.8957H28.5001C28.7187 28.8957 28.8959 28.7184 28.8959 28.4998L28.8959 9.49984C28.8959 9.28123 28.7187 9.104 28.5001 9.104L19.0001 9.10401C18.3442 9.10401 17.8126 8.57234 17.8126 7.91651C17.8126 7.26067 18.3442 6.729 19.0001 6.729H28.5001C30.0304 6.729 31.2709 7.96955 31.2709 9.49984V28.4998C31.2709 30.0301 30.0304 31.2707 28.5001 31.2707H19.0001C18.3442 31.2707 17.8126 30.739 17.8126 30.0832Z" fill="#FC5130"/>
<path d="M5.54175 20.7656C5.54175 21.64 6.25063 22.3489 7.12508 22.3489H14.8137C14.85 22.9117 14.8955 23.474 14.9501 24.0356L14.997 24.5189C15.0734 25.3046 15.9078 25.7751 16.6196 25.434C19.5139 24.0469 22.1339 22.1489 24.3538 19.8311L24.4013 19.7816C24.8242 19.34 24.8242 18.6437 24.4013 18.2021L24.3538 18.1526C22.1339 15.8348 19.5139 13.9368 16.6196 12.5497C15.9078 12.2086 15.0734 12.6791 14.997 13.4648L14.9501 13.9481C14.8955 14.5097 14.85 15.072 14.8137 15.6348L7.12508 15.6348C6.25063 15.6348 5.54175 16.3437 5.54175 17.2181V20.7656Z" fill="#FC5130"/>
</svg>
