<svg width="62" height="62" viewBox="0 0 62 62" fill="none" xmlns="http://www.w3.org/2000/svg">
<path fill-rule="evenodd" clip-rule="evenodd" d="M27.1424 3.8956C27.6118 3.35545 28.3408 3.11805 29.0383 3.27819C38.3611 5.41852 43.0735 15.6346 41.9652 24.7748C41.5344 28.3279 40.4702 31.1133 38.903 33.3295C38.8934 33.3431 38.8838 33.3566 38.8742 33.3701C39.2302 33.1951 39.5586 33.0063 39.8659 32.8068C41.395 31.8144 42.5173 30.5046 43.9786 28.7991C44.1553 28.593 44.3368 28.3811 44.5247 28.1632C44.9468 27.6737 45.5853 27.4269 46.227 27.5053C46.8686 27.5837 47.4289 27.977 47.7207 28.5537C49.0061 31.0937 49.7293 33.9652 49.7293 37C49.7293 47.3438 41.344 55.7292 31.0002 55.7292C20.6563 55.7292 12.271 47.3438 12.271 37C12.271 30.4459 15.6389 24.6797 20.7296 21.3357L20.9042 21.1599C20.9938 21.0695 21.0922 20.9882 21.1978 20.9172C23.4346 19.412 25.0407 18.181 26.1221 16.7332C27.1436 15.3655 27.771 13.6972 27.771 11.1667C27.771 9.29302 27.425 7.50473 26.7952 5.85906C26.5395 5.19069 26.6729 4.43575 27.1424 3.8956ZM31.4425 8.39776C31.5766 9.30187 31.646 10.2265 31.646 11.1667C31.646 14.4434 30.7994 16.9464 29.2267 19.052C27.7496 21.0296 25.705 22.5484 23.5205 24.0246L23.3338 24.2128C23.2337 24.3136 23.1228 24.4032 23.0032 24.4798C18.8752 27.1226 16.146 31.7432 16.146 37C16.146 45.2037 22.7964 51.8542 31.0002 51.8542C39.2039 51.8542 45.8543 45.2037 45.8543 37C45.8543 35.6571 45.6766 34.3575 45.3436 33.1224C44.3614 34.186 43.2773 35.2124 41.9755 36.0573C39.5904 37.6052 36.6058 38.4889 32.2918 38.4889C31.4077 38.4889 30.6357 37.8904 30.4154 37.0341C30.1952 36.1778 30.5825 35.281 31.3569 34.8544C33.1105 33.8884 34.597 32.7073 35.7392 31.0922C36.879 29.4804 37.7522 27.3283 38.1184 24.3083C38.9111 17.7706 36.2054 11.3176 31.4425 8.39776Z" fill="#FC5130"/>
</svg>
