<svg width="58" height="58" viewBox="0 0 58 58" fill="none" xmlns="http://www.w3.org/2000/svg">
<path fill-rule="evenodd" clip-rule="evenodd" d="M16.9163 7.85449C17.9174 7.85449 18.7288 8.66598 18.7288 9.66699V13.6971C25.5625 13.0885 32.4368 13.0885 39.2705 13.6971V9.66699C39.2705 8.66598 40.082 7.85449 41.083 7.85449C42.084 7.85449 42.8955 8.66598 42.8955 9.66699V14.0567C46.5037 14.5669 49.3542 17.4208 49.8368 21.0612L50.0459 22.6391C50.9257 29.2761 50.8497 36.0049 49.8203 42.6203C49.3104 45.8974 46.648 48.4145 43.3475 48.74L40.4644 49.0243C32.8397 49.7762 25.1595 49.7762 17.5348 49.0243L14.6517 48.74C11.3512 48.4145 8.68886 45.8974 8.17892 42.6203C7.14952 36.0049 7.07354 29.2761 7.95329 22.6392L8.16245 21.0612C8.64501 17.4208 11.4956 14.5668 15.1038 14.0567V9.66699C15.1038 8.66598 15.9153 7.85449 16.9163 7.85449ZM17.9922 17.4071C25.3127 16.6852 32.6865 16.6852 40.0071 17.4071L42.1952 17.6229C44.2899 17.8295 45.9666 19.451 46.2432 21.5375L46.4524 23.1155C46.5254 23.6668 46.5916 24.2187 46.6507 24.7712H11.3485C11.4077 24.2187 11.4738 23.6668 11.5469 23.1155L11.756 21.5375C12.0326 19.451 13.7093 17.8295 15.804 17.6229L17.9922 17.4071ZM11.0604 28.3962C10.8231 32.959 11.0568 37.5389 11.7608 42.0629C12.0166 43.7067 13.352 44.9692 15.0075 45.1325L17.8906 45.4168C25.2787 46.1454 32.7205 46.1454 40.1086 45.4168L42.9917 45.1325C44.6472 44.9692 45.9826 43.7067 46.2384 42.0629C46.9424 37.5389 47.1761 32.959 46.9389 28.3962H11.0604Z" fill="#FC5130"/>
</svg>
