<svg width="36" height="36" viewBox="0 0 36 36" fill="none" xmlns="http://www.w3.org/2000/svg">
<path fill-rule="evenodd" clip-rule="evenodd" d="M27.042 14.9467C27.042 14.3253 26.5383 13.8217 25.917 13.8217L22.178 13.8217V10.0827C22.178 9.46138 21.6744 8.9577 21.053 8.9577C20.4317 8.9577 19.928 9.46138 19.928 10.0827V14.9467C19.928 15.568 20.4317 16.0717 21.053 16.0717L25.917 16.0717C26.5383 16.0717 27.042 15.568 27.042 14.9467Z" fill="black"/>
<path fill-rule="evenodd" clip-rule="evenodd" d="M21.0531 27.0422C21.6744 27.0422 22.1781 26.5385 22.1781 25.9172L22.1781 22.1782L25.917 22.1782C26.5384 22.1782 27.042 21.6746 27.042 21.0532C27.042 20.4319 26.5384 19.9282 25.917 19.9282L21.0531 19.9282C20.4318 19.9282 19.9281 20.4319 19.9281 21.0532L19.9281 25.9172C19.9281 26.5385 20.4318 27.0422 21.0531 27.0422Z" fill="black"/>
<path fill-rule="evenodd" clip-rule="evenodd" d="M14.9465 27.0422C14.3252 27.0422 13.8215 26.5385 13.8215 25.9172V22.1782H10.0825C9.4612 22.1782 8.95752 21.6745 8.95752 21.0532C8.95752 20.4319 9.4612 19.9282 10.0825 19.9282L14.9465 19.9282C15.5678 19.9282 16.0715 20.4319 16.0715 21.0532L16.0715 25.9172C16.0715 26.5385 15.5678 27.0422 14.9465 27.0422Z" fill="black"/>
<path fill-rule="evenodd" clip-rule="evenodd" d="M8.95756 14.9467C8.95756 14.3253 9.46124 13.8217 10.0826 13.8217H13.8215L13.8215 10.0827C13.8215 9.46138 14.3252 8.9577 14.9465 8.9577C15.5678 8.9577 16.0715 9.46138 16.0715 10.0827L16.0715 14.9467C16.0715 15.568 15.5678 16.0717 14.9465 16.0717L10.0826 16.0717C9.46124 16.0717 8.95756 15.568 8.95756 14.9467Z" fill="black"/>
</svg>
