<svg width="37" height="37" viewBox="0 0 37 37" fill="none" xmlns="http://www.w3.org/2000/svg">
<path fill-rule="evenodd" clip-rule="evenodd" d="M21.0655 9.77899C21.0655 10.4176 21.5832 10.9352 22.2218 10.9352L26.0646 10.9352V14.7781C26.0646 15.4166 26.5823 15.9343 27.2208 15.9343C27.8594 15.9343 28.3771 15.4166 28.3771 14.7781V9.77899C28.3771 9.14041 27.8594 8.62274 27.2208 8.62274L22.2218 8.62274C21.5832 8.62274 21.0655 9.14041 21.0655 9.77899Z" fill="black"/>
<path fill-rule="evenodd" clip-rule="evenodd" d="M27.2208 21.0657C26.5822 21.0657 26.0645 21.5833 26.0645 22.2219L26.0645 26.0647L22.2217 26.0647C21.5831 26.0647 21.0655 26.5824 21.0655 27.221C21.0655 27.8596 21.5831 28.3772 22.2217 28.3772L27.2208 28.3772C27.8594 28.3772 28.377 27.8596 28.377 27.221L28.377 22.2219C28.377 21.5833 27.8594 21.0657 27.2208 21.0657Z" fill="black"/>
<path fill-rule="evenodd" clip-rule="evenodd" d="M9.77885 21.0657C10.4174 21.0657 10.9351 21.5833 10.9351 22.2219L10.9351 26.0647L14.7779 26.0647C15.4165 26.0647 15.9342 26.5824 15.9342 27.221C15.9342 27.8596 15.4165 28.3772 14.7779 28.3772L9.77885 28.3772C9.14027 28.3772 8.6226 27.8596 8.6226 27.221L8.6226 22.2219C8.6226 21.5833 9.14027 21.0657 9.77885 21.0657Z" fill="black"/>
<path fill-rule="evenodd" clip-rule="evenodd" d="M15.9341 9.77899C15.9341 10.4176 15.4165 10.9352 14.7779 10.9352L10.9351 10.9352L10.9351 14.7781C10.9351 15.4166 10.4174 15.9343 9.77881 15.9343C9.14023 15.9343 8.62256 15.4166 8.62256 14.7781L8.62256 9.77899C8.62256 9.14041 9.14023 8.62274 9.77881 8.62274L14.7779 8.62274C15.4165 8.62274 15.9341 9.14041 15.9341 9.77899Z" fill="black"/>
</svg>
