<svg width="24" height="30" viewBox="0 0 24 30" fill="none" xmlns="http://www.w3.org/2000/svg">
<path fill-rule="evenodd" clip-rule="evenodd" d="M0.346341 11.5763C0.833162 5.6703 5.76854 1.125 11.6946 1.125H12.3065C18.2325 1.125 23.1679 5.6703 23.6547 11.5763C23.9168 14.7561 22.9346 17.9136 20.9149 20.3836L14.1247 28.6878C13.0269 30.0305 10.9742 30.0305 9.87632 28.6878L3.08615 20.3836C1.06647 17.9136 0.0842314 14.7561 0.346341 11.5763ZM12.0005 6.4375C8.28407 6.4375 5.27132 9.45025 5.27132 13.1667C5.27132 16.8831 8.28407 19.8958 12.0005 19.8958C15.7169 19.8958 18.7297 16.8831 18.7297 13.1667C18.7297 9.45025 15.7169 6.4375 12.0005 6.4375Z" fill="#FC5130" stroke="white" stroke-width="0.5"/>
</svg>
