<svg width="24" height="24" viewBox="0 0 24 24" fill="none" xmlns="http://www.w3.org/2000/svg">
<path d="M18.9548 2.04487C19.2477 2.33776 19.2477 2.81263 18.9548 3.10553L18.4043 3.65597C21.6933 7.48705 21.5233 13.2649 17.8941 16.8941C16.1811 18.6071 13.9895 19.5494 11.7498 19.7211V21.2498H13.4998C13.914 21.2498 14.2498 21.5856 14.2498 21.9998C14.2498 22.414 13.914 22.7498 13.4998 22.7498H8.49982C8.0856 22.7498 7.74982 22.414 7.74982 21.9998C7.74982 21.5856 8.0856 21.2498 8.49982 21.2498H10.2498V19.7211C8.24355 19.5672 6.27576 18.7949 4.65597 17.4043L4.10553 17.9548C3.81263 18.2477 3.33776 18.2477 3.04487 17.9548C2.75197 17.6619 2.75197 17.187 3.04487 16.8941L3.75197 16.187C4.24741 15.6916 5.01727 15.7169 5.49959 16.1491C7.06156 17.5489 9.02903 18.2492 10.9968 18.2498L10.9998 18.2498L11.0031 18.2498C13.1133 18.2489 15.2234 17.4435 16.8334 15.8334C19.9464 12.7205 20.0516 7.73834 17.1491 4.49959C16.7169 4.01727 16.6916 3.24741 17.187 2.75197L17.8941 2.04487C18.187 1.75197 18.6619 1.75197 18.9548 2.04487Z" fill="#585858"/>
<path fill-rule="evenodd" clip-rule="evenodd" d="M4.24982 9.99982C4.24982 6.27189 7.27189 3.24982 10.9998 3.24982C14.7277 3.24982 17.7498 6.27189 17.7498 9.99982C17.7498 13.7277 14.7277 16.7498 10.9998 16.7498C7.27189 16.7498 4.24982 13.7277 4.24982 9.99982ZM10.9998 4.74982C8.10032 4.74982 5.74982 7.10032 5.74982 9.99982C5.74982 10.3346 5.78116 10.6622 5.84108 10.9796C6.25239 10.531 6.84327 10.2498 7.49982 10.2498C8.74246 10.2498 9.74982 11.2572 9.74982 12.4998C9.74982 13.4222 9.19483 14.2149 8.40058 14.5623C9.16693 14.9998 10.0542 15.2498 10.9998 15.2498C13.5432 15.2498 15.6641 13.4413 16.1468 11.04C15.4782 12.0692 14.3185 12.7498 12.9998 12.7498C10.9287 12.7498 9.24982 11.0709 9.24982 8.99982C9.24982 6.92875 10.9287 5.24982 12.9998 5.24982C13.0863 5.24982 13.1721 5.25274 13.2571 5.2585C12.5733 4.93238 11.8079 4.74982 10.9998 4.74982ZM10.7498 8.99982C10.7498 7.75718 11.7572 6.74982 12.9998 6.74982C14.2425 6.74982 15.2498 7.75718 15.2498 8.99982C15.2498 10.2425 14.2425 11.2498 12.9998 11.2498C11.7572 11.2498 10.7498 10.2425 10.7498 8.99982ZM7.49982 11.7498C7.0856 11.7498 6.74982 12.0856 6.74982 12.4998C6.74982 12.914 7.0856 13.2498 7.49982 13.2498C7.91403 13.2498 8.24982 12.914 8.24982 12.4998C8.24982 12.0856 7.91403 11.7498 7.49982 11.7498Z" fill="#585858"/>
</svg>
