<svg width="14" height="14" viewBox="0 0 14 14" fill="none" xmlns="http://www.w3.org/2000/svg">
<g clip-path="url(#clip0_1307_457)">
<path d="M2.02057 7.47363H3.10327C2.99291 7.77578 2.93262 8.10186 2.93262 8.44171V12.5337C2.93262 12.6754 2.95728 12.8114 3.00215 12.9379H1.21221C0.54357 12.9379 -0.00037761 12.3939 -0.00037761 11.7253V9.49458C-0.000404954 8.38024 0.906203 7.47363 2.02057 7.47363Z" fill="#FC5130"/>
<path d="M11.067 8.44171C11.067 8.10183 11.0067 7.77578 10.8963 7.47363H11.979C13.0934 7.47363 14 8.38024 14 9.49461V11.7254C14 12.394 13.456 12.9379 12.7874 12.9379H10.9974C11.0423 12.8114 11.067 12.6754 11.067 12.5337V8.44171V8.44171Z" fill="#FC5130"/>
<path d="M5.7626 6.42078H8.23781C9.35218 6.42078 10.2588 7.32739 10.2588 8.44176V12.5338C10.2588 12.757 10.0778 12.938 9.85459 12.938H4.14581C3.92258 12.938 3.74162 12.757 3.74162 12.5338V8.44176C3.74162 7.32739 4.64823 6.42078 5.7626 6.42078Z" fill="#FC5130"/>
<path d="M6.9997 1.06201C8.33987 1.06201 9.43018 2.15232 9.43018 3.49252C9.43018 4.40156 8.92844 5.19549 8.18748 5.61232C7.83603 5.81002 7.43085 5.923 6.9997 5.923C6.56854 5.923 6.16336 5.81002 5.81191 5.61232C5.07092 5.19549 4.56922 4.40154 4.56922 3.49252C4.56922 2.15235 5.65952 1.06201 6.9997 1.06201Z" fill="#FC5130"/>
<path d="M11.2683 3.32751C12.2705 3.32751 13.0859 4.14291 13.0859 5.14519C13.0859 6.14748 12.2705 6.96287 11.2683 6.96287C11.014 6.96287 10.7719 6.91021 10.552 6.81554C10.1717 6.65184 9.85822 6.36205 9.66422 5.99906C9.52804 5.7443 9.45058 5.45366 9.45058 5.14519C9.45058 4.14293 10.266 3.32751 11.2683 3.32751Z" fill="#FC5130"/>
<path d="M2.73261 3.32751C3.7349 3.32751 4.55029 4.14291 4.55029 5.14519C4.55029 5.45369 4.47283 5.74432 4.33666 5.99906C4.14265 6.36208 3.82913 6.65186 3.44888 6.81554C3.22896 6.91021 2.98686 6.96287 2.73261 6.96287C1.73032 6.96287 0.914932 6.14748 0.914932 5.14519C0.914932 4.14291 1.73032 3.32751 2.73261 3.32751Z" fill="#FC5130"/>
</g>
<defs>
<clipPath id="clip0_1307_457">
<rect width="14" height="14" fill="white" transform="matrix(-1 0 0 1 14 0)"/>
</clipPath>
</defs>
</svg>
