<svg width="36" height="36" viewBox="0 0 36 36" fill="none" xmlns="http://www.w3.org/2000/svg">
<path d="M18.0001 16.1252C18.6214 16.1252 19.1251 16.6289 19.1251 17.2502V24.7502C19.1251 25.3715 18.6214 25.8752 18.0001 25.8752C17.3788 25.8752 16.8751 25.3715 16.8751 24.7502L16.8751 17.2502C16.8751 16.6289 17.3788 16.1252 18.0001 16.1252Z" fill="black"/>
<path d="M18.0001 13.5002C18.8285 13.5002 19.5001 12.8286 19.5001 12.0002C19.5001 11.1718 18.8285 10.5002 18.0001 10.5002C17.1717 10.5002 16.5001 11.1718 16.5001 12.0002C16.5001 12.8286 17.1717 13.5002 18.0001 13.5002Z" fill="black"/>
<path fill-rule="evenodd" clip-rule="evenodd" d="M10.9752 5.65335C15.6066 5.13573 20.3936 5.13573 25.025 5.65335C27.7645 5.95954 29.9769 8.1175 30.2992 10.8729C30.853 15.6083 30.853 20.3921 30.2992 25.1275C29.9769 27.8829 27.7645 30.0409 25.025 30.3471C20.3936 30.8647 15.6066 30.8647 10.9752 30.3471C8.23565 30.0409 6.0233 27.8829 5.70103 25.1275C5.14718 20.3921 5.14718 15.6083 5.70103 10.8729C6.0233 8.1175 8.23565 5.95954 10.9752 5.65335ZM24.7751 7.88943C20.3098 7.39037 15.6904 7.39037 11.2251 7.88943C9.50849 8.08129 8.13441 9.43616 7.9358 11.1343C7.40226 15.696 7.40226 20.3044 7.9358 24.8661C8.13441 26.5643 9.50849 27.9192 11.2251 28.111C15.6904 28.6101 20.3098 28.6101 24.7751 28.111C26.4917 27.9192 27.8658 26.5643 28.0644 24.8661C28.5979 20.3044 28.5979 15.696 28.0644 11.1343C27.8658 9.43616 26.4917 8.08129 24.7751 7.88943Z" fill="black"/>
</svg>
