<svg width="129" height="152" viewBox="0 0 129 152" fill="none" xmlns="http://www.w3.org/2000/svg">
<path d="M41.3176 2.13286L29.7096 23.3356C28.878 23.2162 28.0897 23.1906 27.3695 23.1906L31.8445 10.3496C32.5561 8.19093 31.4929 5.8273 29.3239 5.10205C27.1463 4.29147 24.7373 5.43494 24.0086 7.5851L14.3722 35.503C14.2093 35.8869 13.9865 36.2109 13.7893 36.612C12.1347 39.7263 11.6636 44.129 11.5178 47.3542C9.04874 50.5538 -6.34025 86.1851 2.95303 111.85C9.09998 128.881 22.0281 140.024 38.6171 146.603C55.2404 153.173 71.8555 152.883 88.5217 145.724C91.7538 144.316 94.8059 142.78 97.6522 141.022C94.9773 141.389 92.1737 141.594 89.3788 141.594C60.7017 141.594 36.8941 120.596 32.5818 93.1732C32.5818 93.1305 32.5818 93.0962 32.5561 93.045C32.0932 90.7157 31.8103 88.139 31.9303 85.4001C32.2046 79.4189 34.3392 72.6187 39.5945 65.5112C52.36 62.9003 64.594 55.7074 64.594 55.7074C65.0055 55.6392 65.3741 55.5455 65.7342 55.4004C67.6545 54.5643 68.8719 52.4822 68.5033 50.3406C68.1175 47.7894 65.6741 46.0404 63.1021 46.4158L49.2822 49.88C48.082 48.711 48.4337 46.7572 52.1973 42.1241L54.6917 38.6768L67.3887 21.271L67.6545 20.8784C69.0177 19.0183 68.5975 16.4671 66.72 15.1019C64.9368 13.7538 62.2963 14.1548 60.9332 15.9807L57.015 21.3903H56.9983L48.7851 32.7384C48.1421 31.9961 47.4305 31.3305 46.6675 30.7418L52.0001 22.0899L60.2299 8.70267C61.4473 6.76582 60.8986 4.2234 58.9354 2.99474C56.9636 1.80022 54.4177 2.39731 53.1832 4.36827L40.2722 25.3323L39.5344 26.5269C39.14 26.3307 38.7973 26.1941 38.4543 26.0405C38.2572 25.9296 38.0601 25.8442 37.8458 25.7674L48.6224 6.17719C49.7112 4.16354 48.9823 1.64656 47.0019 0.520279C46.3589 0.170456 45.6731 -0.000228882 44.9873 -0.000228882C43.5299 -0.000228882 42.1064 0.767685 41.3176 2.13286Z" fill="url(#paint0_linear_1865_432)"/>
<path d="M74.0344 25.5633L70.6991 30.1792L64.6894 38.4556C67.0899 38.6092 69.3961 39.4454 71.3422 40.8191C74.0684 42.8669 75.8687 45.8107 76.3917 49.1127C76.8718 52.1588 76.1861 55.1704 74.6429 57.6875C82.2816 60.7933 87.8028 66.2627 91.1377 73.976C94.5499 81.8428 94.6871 89.7521 91.5579 97.6274C88.4287 105.503 82.9074 111.143 74.9773 114.513C67.09 117.917 59.2286 118.046 51.2813 114.906C43.3854 111.757 37.7013 106.271 34.2977 98.4039C33.6119 96.8083 33.0288 95.0765 32.583 93.1738C36.8953 120.597 60.7029 141.595 89.3801 141.595C92.1749 141.595 94.9786 141.39 97.6534 141.023C109.493 133.787 118.04 123.54 123.407 110.238C129.965 93.6857 129.657 77.1413 122.507 60.5202C115.76 44.9402 104.803 33.8227 89.7401 27.0822C88.7971 26.6214 87.8026 26.1947 86.791 25.8193C83.0617 24.3261 79.3926 23.2168 75.7062 22.4575C75.329 23.5922 74.7802 24.5821 74.0344 25.5633Z" fill="url(#paint1_linear_1865_432)"/>
<defs>
<linearGradient id="paint0_linear_1865_432" x1="48.8282" y1="-0.00151186" x2="48.8282" y2="151.323" gradientUnits="userSpaceOnUse">
<stop stop-color="#FF1D1D"/>
<stop offset="1" stop-color="#FEC063"/>
</linearGradient>
<linearGradient id="paint1_linear_1865_432" x1="119.298" y1="50.5057" x2="47.041" y2="123.108" gradientUnits="userSpaceOnUse">
<stop stop-color="#FF1D1D"/>
<stop offset="1" stop-color="#FD6A00"/>
</linearGradient>
</defs>
</svg>
