<svg width="131" height="38" viewBox="0 0 131 38" fill="none" xmlns="http://www.w3.org/2000/svg">
<path d="M90.0476 33.4767C89.8944 33.6705 89.7249 33.8483 89.5391 34.0098C89.3534 34.1714 89.1467 34.3122 88.9192 34.4322C88.6916 34.5522 88.4432 34.6445 88.1738 34.7092C87.9045 34.7784 87.6073 34.813 87.2822 34.813C86.8178 34.813 86.4207 34.7507 86.091 34.6261C85.7613 34.5014 85.4896 34.3237 85.276 34.0929C85.067 33.8575 84.9138 33.5759 84.8163 33.2482C84.7188 32.9158 84.67 32.5442 84.67 32.1334C84.67 31.8195 84.7002 31.4779 84.7605 31.1087C84.8256 30.7394 84.9254 30.3701 85.0601 30.0008C85.1948 29.6315 85.3666 29.2738 85.5756 28.9276C85.7892 28.5814 86.0446 28.2744 86.3418 28.0067C86.639 27.739 86.9803 27.5266 87.3658 27.3697C87.7559 27.2081 88.1947 27.1273 88.6823 27.1273C89.2628 27.1273 89.7551 27.2381 90.1591 27.4597C90.5631 27.6766 90.8557 28.009 91.0368 28.4568L89.978 29.0245C89.8619 28.7383 89.6924 28.5237 89.4695 28.3806C89.2466 28.2329 88.9447 28.159 88.5639 28.159C88.2621 28.159 87.9857 28.2213 87.735 28.346C87.4842 28.466 87.259 28.6299 87.0593 28.8376C86.8642 29.0407 86.6924 29.2784 86.5438 29.5508C86.3999 29.8185 86.2791 30.1024 86.1816 30.4024C86.0841 30.6978 86.0121 31.0002 85.9656 31.3095C85.9192 31.6187 85.896 31.9118 85.896 32.1888C85.896 32.4242 85.9215 32.6412 85.9726 32.8397C86.0237 33.0335 86.1073 33.1997 86.2234 33.3382C86.3441 33.4767 86.4997 33.5851 86.6901 33.6636C86.8805 33.7375 87.115 33.7744 87.3936 33.7744C87.584 33.7744 87.7605 33.7536 87.9231 33.7121C88.0856 33.6659 88.2412 33.6036 88.3898 33.5251C88.5384 33.4421 88.68 33.3405 88.8147 33.2205C88.954 33.1005 89.0933 32.9643 89.2326 32.812L90.0476 33.4767Z" fill="#FC5130"/>
<path d="M90.2357 36.1701C90.3379 36.2209 90.4563 36.2624 90.591 36.2948C90.721 36.3271 90.8603 36.3432 91.0089 36.3432C91.1808 36.3432 91.3433 36.3155 91.4965 36.2601C91.6544 36.2047 91.8077 36.1147 91.9563 35.9901C92.1095 35.8655 92.2651 35.6993 92.423 35.4916C92.5809 35.2885 92.7504 35.0369 92.9315 34.7368L93.3216 34.1137L92.1792 27.3351H93.3773L94.2063 32.7566L97.327 27.3351H98.6226L93.9067 35.1523C93.6606 35.5539 93.4307 35.8932 93.2171 36.1701C93.0081 36.4471 92.7922 36.671 92.5693 36.8417C92.3464 37.0172 92.1049 37.1418 91.8448 37.2156C91.5894 37.2941 91.2969 37.3334 90.9671 37.3334C90.8603 37.3334 90.7535 37.3264 90.6467 37.3126C90.5353 37.3034 90.4284 37.2895 90.3263 37.271C90.2241 37.2526 90.1289 37.2295 90.0407 37.2018C89.9478 37.1787 89.8665 37.1533 89.7969 37.1256L90.2357 36.1701Z" fill="#FC5130"/>
<path d="M99.166 37.3334H97.9818L100.106 27.3351H101.291L101.151 28.0621C101.309 27.9328 101.474 27.8105 101.646 27.6951C101.818 27.5797 101.996 27.4805 102.182 27.3974C102.373 27.3143 102.57 27.2497 102.774 27.2035C102.979 27.1527 103.195 27.1273 103.422 27.1273C103.808 27.1273 104.137 27.185 104.411 27.3004C104.685 27.4112 104.908 27.5774 105.08 27.799C105.256 28.0159 105.384 28.2837 105.463 28.6022C105.547 28.9207 105.589 29.2876 105.589 29.7031C105.589 30.017 105.558 30.3632 105.498 30.7417C105.438 31.1156 105.342 31.4918 105.212 31.8703C105.082 32.2488 104.915 32.6158 104.711 32.9712C104.511 33.322 104.27 33.6359 103.986 33.9129C103.708 34.1852 103.385 34.4045 103.018 34.5707C102.656 34.7322 102.247 34.813 101.792 34.813C101.36 34.813 100.991 34.7415 100.685 34.5984C100.378 34.4599 100.111 34.2614 99.8835 34.0029L99.166 37.3334ZM100.092 32.9643C100.325 33.2136 100.571 33.4074 100.831 33.5459C101.096 33.6798 101.407 33.7467 101.764 33.7467C102.048 33.7467 102.308 33.6844 102.544 33.5598C102.786 33.4305 103.002 33.2597 103.192 33.0474C103.383 32.835 103.548 32.5904 103.687 32.3134C103.831 32.0365 103.952 31.748 104.049 31.4479C104.147 31.1433 104.219 30.8386 104.265 30.534C104.311 30.2293 104.335 29.9431 104.335 29.6754C104.335 29.1445 104.242 28.7637 104.056 28.5329C103.87 28.3021 103.578 28.1867 103.178 28.1867C102.969 28.1867 102.76 28.2144 102.551 28.2698C102.347 28.3206 102.15 28.3898 101.959 28.4775C101.769 28.5606 101.585 28.6599 101.409 28.7753C101.233 28.886 101.07 29.0014 100.921 29.1215L100.092 32.9643Z" fill="#FC5130"/>
<path d="M106.48 32.9643C106.48 32.8674 106.487 32.7589 106.501 32.6389C106.52 32.5189 106.547 32.3965 106.585 32.2719C106.626 32.1426 106.68 32.0157 106.745 31.8911C106.81 31.7664 106.889 31.6487 106.982 31.5379C107.112 31.381 107.263 31.2448 107.434 31.1294C107.611 31.014 107.808 30.9102 108.027 30.8178C108.245 30.7209 108.484 30.6355 108.744 30.5617C109.004 30.4832 109.285 30.407 109.587 30.3332C109.931 30.2547 110.207 30.1785 110.416 30.1047C110.625 30.0262 110.801 29.927 110.945 29.8069C111.052 29.7192 111.136 29.5969 111.196 29.44C111.256 29.283 111.287 29.1307 111.287 28.983C111.287 28.8399 111.254 28.7153 111.189 28.6091C111.129 28.4983 111.043 28.4083 110.931 28.339C110.825 28.2698 110.694 28.219 110.541 28.1867C110.393 28.1498 110.232 28.1313 110.061 28.1313C109.828 28.1313 109.624 28.1613 109.448 28.2213C109.276 28.2767 109.123 28.3483 108.988 28.436C108.858 28.5191 108.744 28.6114 108.647 28.7129C108.554 28.8099 108.472 28.8999 108.403 28.983L107.567 28.4014C107.892 27.9905 108.259 27.6766 108.667 27.4597C109.076 27.2381 109.559 27.1273 110.116 27.1273C110.539 27.1273 110.899 27.1735 111.196 27.2658C111.498 27.3581 111.742 27.4874 111.927 27.6536C112.118 27.8151 112.255 28.0113 112.338 28.2421C112.427 28.4683 112.471 28.7153 112.471 28.983C112.471 29.043 112.466 29.1145 112.457 29.1976C112.448 29.2807 112.431 29.3707 112.408 29.4677C112.39 29.5646 112.359 29.6662 112.318 29.7723C112.28 29.8739 112.232 29.9754 112.171 30.077C112.051 30.2755 111.904 30.4463 111.732 30.5894C111.565 30.7278 111.375 30.8502 111.161 30.9563C110.952 31.0579 110.72 31.1456 110.465 31.2194C110.214 31.2933 109.942 31.3648 109.65 31.4341C109.236 31.5356 108.907 31.6326 108.66 31.7249C108.419 31.8172 108.224 31.9188 108.075 32.0296C107.941 32.1311 107.838 32.265 107.769 32.4311C107.699 32.5927 107.664 32.7612 107.664 32.9366C107.664 33.1166 107.704 33.262 107.783 33.3728C107.866 33.4836 107.973 33.5713 108.103 33.6359C108.238 33.7006 108.386 33.7444 108.549 33.7675C108.712 33.7906 108.874 33.8021 109.037 33.8021C109.236 33.8021 109.422 33.779 109.594 33.7329C109.766 33.6867 109.924 33.6221 110.068 33.539C110.216 33.4513 110.355 33.3497 110.486 33.2343C110.616 33.1143 110.741 32.9828 110.862 32.8397L111.684 33.5044C111.563 33.6705 111.417 33.8321 111.245 33.9891C111.078 34.146 110.883 34.2868 110.66 34.4114C110.437 34.5314 110.186 34.6284 109.907 34.7022C109.629 34.7761 109.322 34.813 108.988 34.813C108.616 34.813 108.277 34.7784 107.971 34.7092C107.664 34.6445 107.4 34.5407 107.177 34.3976C106.958 34.2499 106.787 34.0583 106.661 33.8229C106.541 33.5875 106.48 33.3013 106.48 32.9643Z" fill="#FC5130"/>
<path d="M112.081 36.1701C112.183 36.2209 112.301 36.2624 112.436 36.2948C112.566 36.3271 112.705 36.3432 112.854 36.3432C113.026 36.3432 113.188 36.3155 113.342 36.2601C113.499 36.2047 113.653 36.1147 113.801 35.9901C113.955 35.8655 114.11 35.6993 114.268 35.4916C114.426 35.2885 114.595 35.0369 114.776 34.7368L115.167 34.1137L114.024 27.3351H115.222L116.051 32.7566L119.172 27.3351H120.468L115.752 35.1523C115.506 35.5539 115.276 35.8932 115.062 36.1701C114.853 36.4471 114.637 36.671 114.414 36.8417C114.191 37.0172 113.95 37.1418 113.69 37.2156C113.434 37.2941 113.142 37.3334 112.812 37.3334C112.705 37.3334 112.598 37.3264 112.492 37.3126C112.38 37.3034 112.273 37.2895 112.171 37.271C112.069 37.2526 111.974 37.2295 111.886 37.2018C111.793 37.1787 111.712 37.1533 111.642 37.1256L112.081 36.1701Z" fill="#FC5130"/>
<path d="M128.673 34.5984L129.586 30.3193C129.651 30.0147 129.702 29.7515 129.739 29.53C129.781 29.3084 129.802 29.1168 129.802 28.9553C129.802 28.7106 129.748 28.526 129.642 28.4014C129.539 28.2767 129.375 28.2144 129.147 28.2144C128.957 28.2144 128.762 28.2537 128.562 28.3321C128.362 28.406 128.163 28.5029 127.963 28.6229C127.763 28.7429 127.566 28.8791 127.371 29.0314C127.176 29.1792 126.992 29.3246 126.82 29.4677L125.72 34.5984H124.536L125.448 30.3193C125.513 30.01 125.564 29.7423 125.601 29.5161C125.643 29.2899 125.664 29.0984 125.664 28.9414C125.664 28.6922 125.608 28.5098 125.497 28.3944C125.386 28.2744 125.209 28.2144 124.968 28.2144C124.791 28.2144 124.603 28.256 124.403 28.339C124.208 28.4175 124.011 28.5191 123.811 28.6437C123.612 28.7637 123.414 28.8976 123.219 29.0453C123.029 29.193 122.855 29.3338 122.697 29.4677L121.596 34.5984H120.412L121.951 27.3351H123.136L122.913 28.4152C123.098 28.2306 123.293 28.0598 123.498 27.9028C123.707 27.7413 123.913 27.6051 124.118 27.4943C124.322 27.3789 124.522 27.2889 124.717 27.2243C124.916 27.1597 125.1 27.1273 125.267 27.1273C125.564 27.1273 125.815 27.162 126.019 27.2312C126.228 27.3004 126.396 27.3974 126.521 27.522C126.646 27.6466 126.737 27.7967 126.793 27.9721C126.848 28.1475 126.876 28.339 126.876 28.5468C127.336 28.1036 127.779 27.7574 128.207 27.5082C128.639 27.2543 129.043 27.1273 129.419 27.1273C129.73 27.1273 129.988 27.1689 130.192 27.252C130.396 27.3304 130.559 27.4412 130.68 27.5843C130.8 27.7228 130.884 27.8867 130.93 28.0759C130.977 28.2652 131 28.4683 131 28.6852C131 29.0361 130.947 29.4423 130.84 29.9039L129.844 34.5984H128.673Z" fill="#FC5130"/>
<path d="M10.7929 18.1381C10.7929 18.6821 10.6187 19.1241 10.2782 19.4721C9.94153 19.8221 9.50313 19.9981 8.98057 19.9981C8.45019 19.9981 8.01374 19.8221 7.67711 19.4721C7.3307 19.1241 7.16434 18.6821 7.16434 18.1381V11.1904C7.16434 10.7364 7.00973 10.3584 6.70245 10.0384C6.39323 9.73041 6.0155 9.56641 5.58297 9.56641C5.14652 9.56641 4.76488 9.73041 4.45761 10.0384C4.14642 10.3584 3.99376 10.7364 3.99376 11.1904V18.1381C3.99376 18.6821 3.82545 19.1241 3.48491 19.4721C3.14436 19.8221 2.70792 19.9981 2.18145 19.9981C1.65106 19.9981 1.21853 19.8221 0.879944 19.4761C0.5394 19.1241 0.375 18.6821 0.375 18.1381V2.51665C0.375 1.97467 0.5394 1.53068 0.879944 1.18269C1.21853 0.838706 1.65106 0.666711 2.18145 0.666711C2.70792 0.666711 3.14436 0.838706 3.48491 1.18269C3.82545 1.53068 3.99376 1.97467 3.99376 2.51665V6.12653C4.50849 5.95053 5.03692 5.85854 5.58297 5.85854C7.02538 5.85854 8.25643 6.38052 9.26436 7.41449C10.2821 8.44645 10.7929 9.70641 10.7929 11.1804V18.1381Z" fill="#FC5130"/>
<path d="M20.8026 9.93124C20.3407 9.68725 19.8534 9.56526 19.3289 9.56526C18.4658 9.56526 17.7123 9.87125 17.0762 10.4792C16.4421 11.0872 16.1035 11.8392 16.0624 12.7332L20.8026 9.93124ZM25.5839 15.4871C25.5839 15.7811 25.4919 16.101 25.3099 16.461C24.7717 17.539 23.9399 18.393 22.7989 19.0429C21.7009 19.6809 20.5403 19.9969 19.3289 19.9969C17.4109 19.9969 15.7806 19.3069 14.436 17.935C13.0895 16.557 12.4182 14.8891 12.4182 12.9251C12.4182 10.9652 13.0895 9.30326 14.436 7.92131C15.7806 6.54935 17.4109 5.85938 19.3289 5.85938C20.2644 5.85938 21.2038 6.08337 22.1511 6.51535C23.0886 6.95134 23.8812 7.52532 24.5134 8.2493C25.2081 9.03127 25.5604 9.76325 25.5604 10.4512C25.5604 11.0832 25.2532 11.5812 24.6484 11.9372L17.8649 15.937C18.3268 16.173 18.8122 16.295 19.3289 16.295C20.1098 16.295 20.7674 16.065 21.288 15.6091C21.6422 15.2011 21.9926 14.7891 22.3429 14.3831C22.8165 13.9011 23.2647 13.6611 23.6894 13.6611C24.1787 13.6611 24.6151 13.8411 25.0046 14.1991C25.3882 14.5611 25.5839 14.9871 25.5839 15.4871Z" fill="#FC5130"/>
<path d="M33.4894 18.1381C33.4894 18.6821 33.325 19.1241 32.9805 19.4761C32.64 19.8221 32.2055 19.9981 31.6712 19.9981C30.4695 19.9981 29.44 19.5601 28.5926 18.6901C27.7412 17.8261 27.3126 16.7682 27.3126 15.5362V2.51665C27.3126 1.97467 27.4809 1.53068 27.8234 1.18269C28.1679 0.838706 28.6043 0.666711 29.1288 0.666711C29.6592 0.666711 30.0957 0.838706 30.4343 1.18269C30.7748 1.53068 30.9392 1.97467 30.9392 2.51665V15.5362C30.9392 16.0402 31.1858 16.2942 31.6712 16.2942C32.2055 16.2942 32.64 16.4602 32.9805 16.8082C33.325 17.1622 33.4894 17.6001 33.4894 18.1381Z" fill="#FC5130"/>
<path d="M40.8362 18.1381C40.8362 18.6821 40.66 19.1241 40.3234 19.4761C39.9848 19.822 39.5445 19.998 39.0219 19.998C37.8104 19.998 36.7869 19.5601 35.9433 18.6901C35.0881 17.8261 34.6614 16.7681 34.6614 15.5362V2.51663C34.6614 1.97464 34.8317 1.53066 35.1742 1.18267C35.5069 0.838682 35.9433 0.666687 36.4737 0.666687C36.9963 0.666687 37.4366 0.838682 37.7772 1.18267C38.1216 1.53066 38.2899 1.97464 38.2899 2.51663V15.5362C38.2899 16.0402 38.5287 16.2942 39.0219 16.2942C39.5445 16.2942 39.9848 16.4602 40.3234 16.8081C40.66 17.1621 40.8362 17.6001 40.8362 18.1381Z" fill="#FC5130"/>
<path d="M68.1655 13.4585C68.1655 12.1845 67.7154 11.0926 66.821 10.1746C65.9266 9.25663 64.8482 8.80665 63.5936 8.80665C62.3391 8.80665 61.2627 9.25663 60.3741 10.1746C59.4758 11.0926 59.0296 12.1845 59.0296 13.4585C59.0296 14.7504 59.4758 15.8424 60.3741 16.7604C61.2627 17.6783 62.3391 18.1303 63.5936 18.1303C64.8482 18.1303 65.9266 17.6783 66.821 16.7604C67.7154 15.8424 68.1655 14.7504 68.1655 13.4585ZM69.9798 13.4585C69.9798 15.2684 69.3555 16.8084 68.1088 18.0823C66.8503 19.3543 65.3453 19.9982 63.5858 19.9982C61.795 19.9982 60.2802 19.3383 59.0296 18.0303V24.6501C59.0296 25.2721 58.7282 25.588 58.1195 25.588C57.5089 25.588 57.2153 25.2721 57.2153 24.6501V7.86468C57.2153 7.25071 57.5089 6.93872 58.1234 6.93872C58.5931 6.93872 58.8828 7.17471 58.9865 7.64069C59.0374 7.81668 59.0472 8.23467 59.0374 8.90665C60.288 7.59269 61.8028 6.93872 63.5936 6.93872C65.3531 6.93872 66.8582 7.58469 68.1088 8.85865C69.3555 10.1326 69.9798 11.6645 69.9798 13.4585Z" fill="#1B1B1B"/>
<path d="M80.8141 10.3863C79.8962 9.33638 78.7611 8.80639 77.393 8.80639C76.1385 8.80639 75.0699 9.25838 74.1755 10.1763C73.2811 11.0943 72.8368 12.1883 72.8368 13.4682C72.8368 13.9742 72.9151 14.4722 73.0716 14.9522L80.8141 10.3863ZM83.0629 16.2522C83.0629 16.3922 83.0237 16.5561 82.9376 16.7421C82.4248 17.7181 81.6576 18.5101 80.6125 19.1061C79.5889 19.7 78.5145 19.998 77.4028 19.998C75.6394 19.998 74.1461 19.3541 72.8916 18.0821C71.639 16.8081 71.0166 15.2682 71.0166 13.4582C71.0166 11.6643 71.639 10.1324 72.8916 8.85839C74.1461 7.58643 75.6394 6.93845 77.4028 6.93845C78.031 6.93845 78.6867 7.06445 79.3756 7.30444C80.1506 7.57843 80.912 8.01242 81.6576 8.6144C82.5794 9.35637 83.0511 10.0604 83.0511 10.7163C83.0511 11.0503 82.8985 11.3043 82.5971 11.4763L73.9876 16.5561C74.8977 17.6061 76.0308 18.1301 77.4028 18.1301C78.8374 18.1301 79.9862 17.6001 80.8454 16.5281C80.9472 16.3722 81.1194 16.1222 81.3621 15.8042C81.6009 15.4842 81.8475 15.3342 82.1058 15.3342C82.3583 15.3342 82.5794 15.4162 82.7732 15.5942C82.967 15.7762 83.0629 16.0022 83.0629 16.2522Z" fill="#1B1B1B"/>
<path d="M94.9792 13.4586C94.9792 12.1846 94.531 11.0926 93.6366 10.1747C92.7441 9.2567 91.6736 8.80671 90.4092 8.80671C89.1547 8.80671 88.0822 9.2567 87.1897 10.1747C86.2953 11.0926 85.8452 12.1846 85.8452 13.4586C85.8452 14.7505 86.2953 15.8425 87.1897 16.7605C88.0822 17.6784 89.1547 18.1304 90.4092 18.1304C91.6736 18.1304 92.7441 17.6784 93.6366 16.7605C94.531 15.8425 94.9792 14.7505 94.9792 13.4586ZM96.7974 13.4586C96.7974 15.2685 96.1691 16.8085 94.9263 18.0824C93.6699 19.3544 92.1687 19.9984 90.4092 19.9984C88.6576 19.9984 87.1545 19.3544 85.9 18.0824C84.6513 16.8085 84.027 15.2685 84.027 13.4586C84.027 11.6646 84.6513 10.1327 85.9 8.85871C87.1545 7.58475 88.6576 6.93877 90.4092 6.93877C92.1687 6.93877 93.6699 7.58475 94.9263 8.85871C96.1691 10.1327 96.7974 11.6646 96.7974 13.4586Z" fill="#1B1B1B"/>
<path d="M109.799 13.4585C109.799 12.1845 109.356 11.0926 108.464 10.1746C107.57 9.25663 106.493 8.80665 105.235 8.80665C103.982 8.80665 102.906 9.25663 102.011 10.1746C101.115 11.0926 100.669 12.1845 100.669 13.4585C100.669 14.7504 101.115 15.8424 102.011 16.7604C102.906 17.6783 103.982 18.1303 105.235 18.1303C106.493 18.1303 107.57 17.6783 108.464 16.7604C109.356 15.8424 109.799 14.7504 109.799 13.4585ZM111.627 13.4585C111.627 15.2684 110.991 16.8084 109.746 18.0823C108.489 19.3543 106.99 19.9982 105.227 19.9982C103.438 19.9982 101.917 19.3383 100.669 18.0303V24.6501C100.669 25.2721 100.367 25.588 99.7626 25.588C99.1578 25.588 98.8447 25.2721 98.8447 24.6501V7.86468C98.8447 7.25071 99.1578 6.93872 99.7704 6.93872C100.236 6.93872 100.526 7.17471 100.632 7.64069C100.673 7.81668 100.694 8.23467 100.679 8.90665C101.929 7.59269 103.446 6.93872 105.235 6.93872C106.99 6.93872 108.491 7.58469 109.746 8.85865C110.991 10.1326 111.627 11.6645 111.627 13.4585Z" fill="#1B1B1B"/>
<path d="M117.887 19.0561C117.887 19.6801 117.582 19.9981 116.974 19.9981C115.979 19.9981 115.124 19.6281 114.41 18.9001C113.691 18.1641 113.339 17.2882 113.339 16.2642V2.29065C113.339 1.66867 113.639 1.35068 114.253 1.35068C114.854 1.35068 115.155 1.66867 115.155 2.29465V16.2642C115.155 16.7782 115.333 17.2182 115.694 17.5901C116.054 17.9541 116.484 18.1301 116.974 18.1301C117.582 18.1301 117.887 18.4381 117.887 19.0561Z" fill="#1B1B1B"/>
<path d="M127.964 10.8242C127.055 9.77423 125.914 9.24425 124.556 9.24425C123.294 9.24425 122.217 9.69623 121.333 10.6142C120.438 11.5322 119.988 12.6261 119.988 13.9061C119.988 14.4121 120.07 14.9101 120.235 15.39L127.964 10.8242ZM130.216 16.69C130.216 16.83 130.171 16.994 130.093 17.18C129.578 18.156 128.807 18.9479 127.774 19.5439C126.742 20.1379 125.668 20.4359 124.56 20.4359C122.801 20.4359 121.296 19.7919 120.045 18.5199C118.794 17.246 118.174 15.706 118.174 13.8961C118.174 12.1022 118.794 10.5702 120.045 9.29624C121.296 8.02429 122.801 7.37631 124.56 7.37631C125.186 7.37631 125.836 7.5023 126.533 7.7423C127.308 8.01629 128.067 8.45027 128.811 9.05225C129.739 9.79423 130.204 10.4982 130.204 11.1542C130.204 11.4882 130.048 11.7422 129.75 11.9142L121.145 16.994C122.049 18.044 123.184 18.5679 124.56 18.5679C126.002 18.5679 127.145 18.038 127.993 16.966C128.101 16.81 128.277 16.56 128.513 16.242C128.756 15.922 128.999 15.772 129.265 15.772C129.516 15.772 129.733 15.854 129.923 16.032C130.124 16.214 130.216 16.44 130.216 16.69Z" fill="#1B1B1B"/>
<path d="M54.9423 12.8331C54.9423 14.8058 54.2497 16.4806 52.8644 17.8576C51.4868 19.2269 49.8058 19.9115 47.8212 19.9115C45.8366 19.9115 44.1516 19.2269 42.7663 17.8576C41.3888 16.4806 40.7 14.8058 40.7 12.8331C40.7 10.8604 41.3888 9.18948 42.7663 7.82022C44.1516 6.44322 45.8366 5.75472 47.8212 5.75472C49.8058 5.75472 51.4868 6.44322 52.8644 7.82022C54.2497 9.18948 54.9423 10.8604 54.9423 12.8331ZM51.2066 12.8331C51.2066 11.8971 50.8759 11.1041 50.2144 10.4543C49.5606 9.79676 48.7629 9.46798 47.8212 9.46798C46.8795 9.46798 46.0778 9.79676 45.4163 10.4543C44.7626 11.1041 44.4357 11.8971 44.4357 12.8331C44.4357 13.7692 44.7626 14.566 45.4163 15.2235C46.0778 15.8734 46.8795 16.1983 47.8212 16.1983C48.7629 16.1983 49.5606 15.8734 50.2144 15.2235C50.8759 14.566 51.2066 13.7692 51.2066 12.8331Z" fill="#FC5130"/>
</svg>
