<svg width="60" height="60" viewBox="0 0 60 60" fill="none" xmlns="http://www.w3.org/2000/svg">
<path fill-rule="evenodd" clip-rule="evenodd" d="M20.625 22.5C20.625 17.3223 24.8223 13.125 30 13.125C35.1777 13.125 39.375 17.3223 39.375 22.5C39.375 27.6777 35.1777 31.875 30 31.875C24.8223 31.875 20.625 27.6777 20.625 22.5ZM30 16.875C26.8934 16.875 24.375 19.3934 24.375 22.5C24.375 25.6066 26.8934 28.125 30 28.125C33.1066 28.125 35.625 25.6066 35.625 22.5C35.625 19.3934 33.1066 16.875 30 16.875Z" fill="#FC5130"/>
<path fill-rule="evenodd" clip-rule="evenodd" d="M13.641 20.3181C14.3254 12.0151 21.2639 5.625 29.5951 5.625H30.405C38.7361 5.625 45.6746 12.0151 46.359 20.3181C46.7259 24.7688 45.3511 29.1881 42.5242 32.6453L33.5372 43.6361C31.709 45.872 28.291 45.872 26.4628 43.6361L17.4758 32.6453C14.6489 29.1881 13.2742 24.7688 13.641 20.3181ZM29.5951 9.375C23.2155 9.375 17.9024 14.2682 17.3784 20.6262C17.0913 24.1086 18.167 27.5665 20.3789 30.2715L29.3659 41.2624C29.6936 41.6632 30.3064 41.6632 30.6342 41.2624L39.6212 30.2715C41.833 27.5665 42.9087 24.1086 42.6217 20.6262C42.0976 14.2682 36.7845 9.375 30.405 9.375H29.5951Z" fill="#FC5130"/>
<path d="M19.1771 40.8385C19.6402 39.9123 19.2647 38.786 18.3385 38.3229C17.4123 37.8598 16.2861 38.2353 15.823 39.1615L10.823 49.1615C10.5323 49.7427 10.5634 50.433 10.905 50.9857C11.2467 51.5385 11.8502 51.875 12.5 51.875H47.5C48.1498 51.875 48.7533 51.5385 49.095 50.9857C49.4366 50.433 49.4677 49.7427 49.1771 49.1615L44.1771 39.1615C43.7139 38.2353 42.5877 37.8598 41.6615 38.3229C40.7353 38.786 40.3598 39.9123 40.823 40.8385L44.4662 48.125H15.5338L19.1771 40.8385Z" fill="#FC5130"/>
</svg>
