<svg width="150" height="150" viewBox="0 0 150 150" fill="none" xmlns="http://www.w3.org/2000/svg">
<rect width="150" height="150" rx="10" fill="#DADADA"/>
<path d="M61.8427 32.2309L55.1442 44.4661C54.6643 44.3972 54.2094 44.3825 53.7938 44.3825L56.3761 36.9725C56.7867 35.7268 56.1733 34.3628 54.9216 33.9443C53.665 33.4766 52.2749 34.1364 51.8544 35.3772L46.2936 51.4874C46.1996 51.709 46.071 51.896 45.9572 52.1274C45.0024 53.9245 44.7305 56.4651 44.6464 58.3263C43.2216 60.1726 34.3413 80.734 39.7041 95.5443C43.2512 105.372 50.7115 111.802 60.2843 115.598C69.8769 119.39 79.4648 119.222 89.0822 115.091C90.9473 114.279 92.7085 113.392 94.351 112.378C92.8074 112.59 91.1896 112.708 89.5768 112.708C73.0284 112.708 59.29 100.591 56.8016 84.7665C56.8016 84.7418 56.8016 84.7221 56.7868 84.6925C56.5196 83.3484 56.3564 81.8614 56.4256 80.2809C56.584 76.8295 57.8157 72.9053 60.8484 68.8039C68.2147 67.2973 75.2745 63.1466 75.2745 63.1466C75.5119 63.1072 75.7246 63.0531 75.9324 62.9694C77.0406 62.4869 77.7431 61.2854 77.5304 60.0496C77.3077 58.5774 75.8978 57.5681 74.4136 57.7847L66.4387 59.7838C65.7461 59.1092 65.9491 57.9817 68.1209 55.3082L69.5603 53.3189L76.8872 43.2747L77.0406 43.0482C77.8272 41.9748 77.5847 40.5026 76.5013 39.7148C75.4723 38.9369 73.9486 39.1683 73.162 40.222L70.901 43.3436H70.8913L66.1519 49.8921C65.7808 49.4638 65.3702 49.0797 64.9299 48.7399L68.0071 43.7473L72.7562 36.0221C73.4587 34.9044 73.1421 33.4373 72.0091 32.7283C70.8713 32.039 69.4022 32.3835 68.6898 33.5209L61.2394 45.6183L60.8136 46.3077C60.5861 46.1945 60.3883 46.1157 60.1904 46.027C60.0766 45.963 59.9629 45.9137 59.8392 45.8694L66.0579 34.5647C66.6862 33.4027 66.2656 31.9503 65.1228 31.3004C64.7518 31.0985 64.3561 31 63.9603 31C63.1193 31 62.2978 31.4431 61.8427 32.2309" fill="url(#paint0_linear_2234_573)"/>
<path d="M80.7206 45.7517L78.796 48.4153L75.328 53.1913C76.7133 53.2799 78.0441 53.7624 79.1671 54.5551C80.7403 55.7368 81.7791 57.4356 82.0809 59.341C82.358 61.0988 81.9623 62.8367 81.0718 64.2892C85.4797 66.0814 88.6658 69.2376 90.5903 73.6886C92.5593 78.2282 92.6385 82.7923 90.8327 87.3368C89.027 91.8814 85.8409 95.1359 81.2647 97.0808C76.7133 99.0453 72.1768 99.1193 67.5908 97.3074C63.0344 95.4905 59.7543 92.3245 57.7903 87.7849C57.3945 86.8642 57.058 85.8648 56.8008 84.7668C59.2892 100.591 73.0276 112.709 89.576 112.709C91.1888 112.709 92.8067 112.59 94.3502 112.379C101.182 108.203 106.114 102.29 109.211 94.6141C112.996 85.0622 112.818 75.5151 108.692 65.9238C104.799 56.9332 98.476 50.5178 89.7837 46.6281C89.2396 46.3622 88.6657 46.116 88.0819 45.8994C85.9299 45.0377 83.8127 44.3976 81.6854 43.9594C81.4677 44.6142 81.151 45.1854 80.7206 45.7517" fill="url(#paint1_linear_2234_573)"/>
<defs>
<linearGradient id="paint0_linear_2234_573" x1="66.1767" y1="30.9993" x2="66.1767" y2="118.322" gradientUnits="userSpaceOnUse">
<stop stop-color="#777777"/>
<stop offset="0.555475" stop-color="#8B8B8B"/>
<stop offset="1" stop-color="#BCBCBC"/>
</linearGradient>
<linearGradient id="paint1_linear_2234_573" x1="106.84" y1="60.1449" x2="65.1439" y2="102.041" gradientUnits="userSpaceOnUse">
<stop stop-color="#B0B0B0"/>
<stop offset="1" stop-color="#303030"/>
</linearGradient>
</defs>
</svg>
