<svg width="16" height="16" viewBox="0 0 16 16" fill="none" xmlns="http://www.w3.org/2000/svg">
<path d="M8.46875 1.46875C8.46875 1.20984 8.25891 1 8 1C7.74109 1 7.53125 1.20984 7.53125 1.46875V3.47705C7.53125 3.73596 7.74109 3.9458 8 3.9458C8.25891 3.9458 8.46875 3.73596 8.46875 3.47705V1.46875Z" fill="#12A9FF"/>
<path d="M5.6604 4.31067C5.75183 4.4021 5.87183 4.448 5.99182 4.448C6.11169 4.448 6.23169 4.40222 6.32324 4.31067C6.50623 4.12756 6.50623 3.83081 6.32324 3.6477L5.31897 2.64355C5.13599 2.46045 4.83923 2.46045 4.65613 2.64355C4.47302 2.82666 4.47302 3.12341 4.65613 3.30652L5.6604 4.31067Z" fill="#12A9FF"/>
<path d="M10.0085 4.44788C10.1285 4.44788 10.2485 4.4021 10.34 4.31055L11.3442 3.3064C11.5272 3.12341 11.5272 2.82654 11.3442 2.64355C11.1611 2.46045 10.8644 2.46045 10.6813 2.64355L9.67712 3.6477C9.49402 3.83081 9.49402 4.12756 9.67712 4.31055C9.76868 4.4021 9.88867 4.44788 10.0085 4.44788Z" fill="#12A9FF"/>
<path d="M6.64392 5.52851C6.63904 5.53254 6.6344 5.53644 6.63 5.54011L4.60339 7.27741C4.41565 7.4383 4.17566 7.52704 3.9281 7.52704H2.47656C1.10876 7.52704 0 8.63385 0 10.0036V14.523C0 14.7818 0.209839 14.9918 0.46875 14.9918H4.48535C4.74438 14.9918 4.9541 14.7817 4.9541 14.523V10.2198L7.33936 8.17524C7.46118 8.07087 7.53125 7.9184 7.53125 7.758V5.95832C7.53125 5.50055 6.99951 5.24018 6.64392 5.52851V5.52851Z" fill="#12A9FF"/>
<path d="M13.5234 7.52704H12.0719C11.8243 7.52704 11.5844 7.4383 11.3966 7.27729L9.37 5.54011C9.3656 5.53644 9.36096 5.53254 9.35608 5.52851C9.00049 5.24018 8.46875 5.50055 8.46875 5.95832V7.758C8.46875 7.9184 8.53882 8.07087 8.66064 8.17524L11.0459 10.2198V14.5229C11.0459 14.7817 11.2556 14.9916 11.5146 14.9916H15.5312C15.7902 14.9916 16 14.7818 16 14.5229V10.0036C16 8.63385 14.8912 7.52704 13.5234 7.52704Z" fill="#12A9FF"/>
<path d="M4.45215 5.552C4.45215 4.46301 3.56616 3.57703 2.47717 3.57703C1.38818 3.57703 0.502197 4.46301 0.502197 5.552C0.502197 6.64111 1.38818 7.5271 2.47717 7.5271C3.56616 7.5271 4.45215 6.64111 4.45215 5.552Z" fill="#12A9FF"/>
<path d="M15.4978 5.552C15.4978 4.46301 14.6118 3.57703 13.5228 3.57703C12.4338 3.57703 11.5479 4.46301 11.5479 5.552C11.5479 6.64111 12.4338 7.5271 13.5228 7.5271C14.6118 7.5271 15.4978 6.64111 15.4978 5.552V5.552Z" fill="#12A9FF"/>
</svg>
