<svg width="18" height="18" viewBox="0 0 18 18" fill="none" xmlns="http://www.w3.org/2000/svg">
<g clip-path="url(#clip0_1810_917)">
<path d="M13.1836 7.73438C12.7953 7.73438 12.4805 7.41959 12.4805 7.03125C12.4805 6.8374 12.3228 6.67969 12.1289 6.67969C11.9351 6.67969 11.7773 6.8374 11.7773 7.03125C11.7773 7.41959 11.4626 7.73438 11.0742 7.73438C10.6859 7.73438 10.3711 7.41959 10.3711 7.03125C10.3711 6.06199 11.1596 5.27344 12.1289 5.27344C13.0982 5.27344 13.8867 6.06199 13.8867 7.03125C13.8867 7.41959 13.5719 7.73438 13.1836 7.73438ZM7.66406 7.03125C7.66406 6.06199 6.87551 5.27344 5.90625 5.27344C4.93699 5.27344 4.14844 6.06199 4.14844 7.03125C4.14844 7.41959 4.46323 7.73438 4.85156 7.73438C5.2399 7.73438 5.55469 7.41959 5.55469 7.03125C5.55469 6.8374 5.7124 6.67969 5.90625 6.67969C6.1001 6.67969 6.25781 6.8374 6.25781 7.03125C6.25781 7.41959 6.5726 7.73438 6.96094 7.73438C7.34927 7.73438 7.66406 7.41959 7.66406 7.03125ZM13.6568 16.703C13.989 16.5018 14.0951 16.0694 13.894 15.7373C13.6928 15.4052 13.2604 15.299 12.9283 15.5002C11.7472 16.2156 10.3888 16.5938 9 16.5938C4.81279 16.5938 1.40625 13.1872 1.40625 9C1.40625 4.81279 4.81279 1.40625 9 1.40625C13.1872 1.40625 16.5938 4.81279 16.5938 9C16.5938 10.4973 16.1485 11.9547 15.3061 13.2147C15.0903 13.5375 15.177 13.9742 15.4999 14.19C15.8227 14.4059 16.2594 14.3191 16.4752 13.9963C17.4727 12.5042 18 10.7765 18 9C18 6.59602 17.0638 4.33593 15.364 2.63602C13.6641 0.936176 11.404 0 9 0C6.59602 0 4.33593 0.936176 2.63602 2.63602C0.936176 4.33593 0 6.59602 0 9C0 11.404 0.936176 13.6641 2.63602 15.364C4.33593 17.0638 6.59602 18 9 18C10.6458 18 12.2561 17.5515 13.6568 16.703ZM12.0234 10.2305C11.7945 10.2305 11.5917 10.3404 11.4633 10.5098C11.4633 10.5098 10.5486 11.4961 9 11.4961C7.45137 11.4961 6.53667 10.5098 6.53667 10.5098C6.40828 10.3404 6.2055 10.2305 5.97656 10.2305C5.58823 10.2305 5.27344 10.5453 5.27344 10.9336C5.27344 11.1337 5.35739 11.3138 5.49155 11.4418C5.61871 11.5829 6.86612 12.9023 9 12.9023C11.1339 12.9023 12.3813 11.5829 12.5085 11.4418C12.6426 11.3138 12.7266 11.1337 12.7266 10.9336C12.7266 10.5453 12.4118 10.2305 12.0234 10.2305Z" fill="#FC5130"/>
</g>
<defs>
<clipPath id="clip0_1810_917">
<rect width="18" height="18" fill="white"/>
</clipPath>
</defs>
</svg>
