<svg width="25" height="25" viewBox="0 0 25 25" fill="none" xmlns="http://www.w3.org/2000/svg">
<g clip-path="url(#clip0_2920_1309)">
<path d="M12.5 0C5.58511 0 0 5.58511 0 12.5C0 19.4149 5.58511 25.0001 12.5 25.0001C19.4149 25.0001 25.0001 19.4149 25.0001 12.5C25.0001 5.58511 19.4149 0 12.5 0ZM12.5 22.9255C6.75534 22.9255 2.07447 18.2447 2.07447 12.5C2.07447 6.75529 6.75534 2.07447 12.5 2.07447C18.2447 2.07447 22.9256 6.75534 22.9256 12.5C22.9256 18.2447 18.2447 22.9255 12.5 22.9255Z" fill="#545454"/>
<path d="M8.40415 7.76611C7.81906 7.76611 7.34033 8.24484 7.34033 8.82993V9.09587C7.34033 9.68096 7.81906 10.1597 8.40415 10.1597C8.98924 10.1597 9.46796 9.68096 9.46796 9.09587V8.82993C9.46801 8.24484 8.98929 7.76611 8.40415 7.76611Z" fill="#545454"/>
<path d="M16.5956 7.76611C16.0105 7.76611 15.5317 8.24484 15.5317 8.82993V9.09587C15.5317 9.68096 16.0105 10.1597 16.5956 10.1597C17.1806 10.1597 17.6594 9.68096 17.6594 9.09587V8.82993C17.6594 8.24484 17.1806 7.76611 16.5956 7.76611Z" fill="#545454"/>
<path d="M18.6172 14.0428C18.1917 13.6173 17.5534 13.6173 17.1278 14.0428C14.5746 16.596 10.4789 16.596 7.92572 14.0428C7.50021 13.6173 6.86191 13.6173 6.43634 14.0428C6.01078 14.4683 6.01083 15.1066 6.43634 15.5321C8.0853 17.1811 10.3193 18.0321 12.5002 18.0321C14.681 18.0321 16.9151 17.2343 18.6172 15.5321C19.0428 15.1066 19.0428 14.4683 18.6172 14.0428Z" fill="#545454"/>
</g>
<defs>
<clipPath id="clip0_2920_1309">
<rect width="25" height="25" fill="white"/>
</clipPath>
</defs>
</svg>
